<?xml version="1.0" standalone="no"?>
<!DOCTYPE svg PUBLIC "-//W3C//DTD SVG 20010904//EN"
 "http://www.w3.org/TR/2001/REC-SVG-20010904/DTD/svg10.dtd">
<svg version="1.0" xmlns="http://www.w3.org/2000/svg"
 width="1600.000000pt" height="1600.000000pt" viewBox="0 0 1600.000000 1600.000000"
 preserveAspectRatio="xMidYMid meet">
<metadata>
Created by potrace 1.11, written by Peter Selinger 2001-2013
</metadata>
<g transform="translate(0.000000,1600.000000) scale(0.100000,-0.100000)"
fill="#000000" stroke="none">
<path d="M4480 13760 l0 -320 -320 0 -320 0 0 -640 0 -640 -640 0 -640 0 0
-320 0 -320 -320 0 -320 0 0 -1280 0 -1280 320 0 320 0 0 -320 0 -320 320 0
320 0 0 -320 0 -320 -320 0 -320 0 0 -320 0 -320 -320 0 -320 0 0 -1280 0
-1280 320 0 320 0 0 -320 0 -320 640 0 640 0 0 -640 0 -640 320 0 320 0 0
-320 0 -320 1280 0 1280 0 0 320 0 320 320 0 320 0 0 320 0 320 320 0 320 0 0
-320 0 -320 320 0 320 0 0 -320 0 -320 1280 0 1280 0 0 320 0 320 320 0 320 0
0 640 0 640 640 0 640 0 0 320 0 320 320 0 320 0 0 1280 0 1280 -320 0 -320 0
0 320 0 320 -320 0 -320 0 0 320 0 320 320 0 320 0 0 320 0 320 320 0 320 0 0
1280 0 1280 -320 0 -320 0 0 320 0 320 -640 0 -640 0 0 640 0 640 -320 0 -320
0 0 320 0 320 -1280 0 -1280 0 0 -320 0 -320 -320 0 -320 0 0 -320 0 -320
-320 0 -320 0 0 320 0 320 -320 0 -320 0 0 320 0 320 -1280 0 -1280 0 0 -320z"/>
<path d="M14504 13963 c4 -7 2 -13 -3 -13 -20 0 -5 -43 16 -46 23 -4 36 25 22
47 -5 8 -9 10 -9 5 0 -5 -8 -2 -17 5 -11 10 -14 10 -9 2z"/>
</g>
</svg>
